<?xml version="1.0" standalone="no"?>
<!DOCTYPE svg PUBLIC "-//W3C//DTD SVG 20010904//EN"
 "http://www.w3.org/TR/2001/REC-SVG-20010904/DTD/svg10.dtd">
<svg version="1.0" xmlns="http://www.w3.org/2000/svg"
 width="4121.000000pt" height="3312.000000pt" viewBox="0 0 4121.000000 3312.000000"
 preserveAspectRatio="xMidYMid meet">

<g transform="translate(0.000000,3312.000000) scale(0.100000,-0.100000)"
fill="#000000" stroke="none">
<path d="M14455 25999 c-1097 -62 -1960 -354 -2640 -895 -139 -110 -417 -388
-521 -519 -450 -568 -665 -1224 -640 -1950 27 -816 269 -1424 752 -1896 254
-247 534 -430 1034 -678 528 -262 1070 -471 1930 -744 1456 -464 2022 -702
2353 -991 341 -298 506 -701 467 -1141 -45 -512 -337 -879 -906 -1137 -539
-245 -1367 -322 -2080 -194 -472 85 -949 284 -1371 571 -247 169 -405 301
-707 594 -231 224 -281 265 -400 325 -151 77 -276 106 -458 106 -135 0 -237
-18 -348 -61 -262 -101 -511 -379 -590 -659 -28 -98 -38 -290 -20 -397 69
-429 419 -866 1052 -1316 753 -535 1586 -865 2523 -1002 803 -116 1734 -87
2512 81 1116 240 2024 805 2529 1574 346 528 509 1143 491 1860 -9 356 -51
603 -153 909 -179 533 -512 995 -999 1386 -357 287 -973 590 -1805 888 -313
112 -592 202 -1131 366 -794 241 -1308 424 -1681 599 -372 174 -636 413 -774
697 -138 285 -149 648 -28 945 185 458 722 772 1476 865 290 35 678 38 910 5
594 -84 1101 -338 1627 -816 220 -199 404 -315 587 -370 118 -34 279 -42 416
-20 387 63 721 357 825 726 14 52 18 99 17 230 -1 149 -3 173 -28 254 -70 230
-188 408 -417 631 -217 211 -496 404 -854 591 -857 447 -1857 645 -2950 583z"/>
<path d="M22522 25899 c-479 -65 -811 -351 -862 -744 -7 -55 -10 -1698 -8
-5230 l3 -5150 28 -90 c39 -125 98 -226 184 -312 109 -110 247 -195 408 -250
315 -108 753 -91 1030 40 233 110 402 302 468 534 l22 78 5 1731 5 1732 665
641 c365 353 668 640 671 639 4 -2 542 -653 1195 -1448 2553 -3107 2980 -3625
3044 -3687 252 -250 553 -362 894 -332 212 18 407 90 598 221 228 155 375 361
423 592 18 92 21 261 6 358 -25 155 -100 329 -199 460 -31 42 -642 750 -1357
1575 -2678 3085 -3110 3585 -3110 3593 0 5 214 208 476 452 2933 2732 3176
2960 3227 3030 118 160 171 310 179 513 13 304 -81 543 -293 745 -137 131
-304 226 -474 270 -107 28 -331 38 -452 20 -171 -25 -348 -99 -493 -207 -47
-35 -503 -474 -1105 -1064 -564 -552 -1671 -1636 -2460 -2408 l-1435 -1405 -5
2200 -5 2199 -23 75 c-37 119 -97 223 -178 309 -147 157 -329 254 -564 302
-112 23 -395 33 -508 18z"/>
<path d="M18969 14006 c-127 -35 -266 -149 -318 -261 -95 -200 -54 -447 97
-586 213 -197 514 -197 712 1 103 103 150 215 150 355 0 187 -74 323 -230 424
-91 59 -167 81 -274 80 -50 0 -112 -6 -137 -13z"/>
<path d="M34171 12669 c-347 -42 -608 -233 -837 -608 l-39 -65 -5 205 c-5 197
-6 206 -32 254 -68 127 -174 185 -338 185 -166 0 -287 -66 -347 -188 l-28 -57
-3 -1405 c-2 -870 1 -1429 7 -1468 32 -205 210 -318 463 -290 97 10 182 52
245 122 87 95 83 50 83 928 l0 769 36 87 c105 255 214 434 348 568 74 74 107
99 176 133 179 87 325 79 489 -27 132 -86 269 -95 406 -25 57 30 151 132 183
200 24 51 27 70 27 158 0 92 -3 106 -32 167 -72 152 -251 285 -453 337 -93 23
-250 33 -349 20z"/>
<path d="M7834 12655 c-433 -64 -777 -269 -1037 -621 -175 -237 -281 -510
-323 -828 -23 -171 -15 -506 15 -666 43 -227 132 -448 253 -630 73 -110 264
-309 378 -392 289 -213 602 -314 1011 -325 452 -13 805 75 1109 276 115 76
267 228 303 304 78 163 49 318 -82 439 -70 65 -145 98 -225 98 -89 0 -137 -23
-239 -117 -162 -150 -320 -239 -507 -286 -71 -18 -115 -21 -265 -22 -155 0
-193 3 -269 23 -341 86 -588 338 -655 669 -12 55 -21 115 -21 132 l0 31 1058
2 1057 3 60 24 c155 61 217 213 200 486 -16 266 -93 496 -240 714 -254 379
-597 609 -1014 680 -145 25 -417 27 -567 6z m483 -645 c191 -46 356 -167 454
-335 65 -111 89 -255 49 -295 -20 -20 -33 -20 -774 -20 l-753 0 8 43 c10 55
41 142 69 197 99 196 305 352 537 409 110 27 299 28 410 1z"/>
<path d="M29980 12664 c-182 -22 -375 -77 -526 -148 -265 -126 -526 -376 -681
-652 -166 -296 -247 -663 -229 -1029 25 -485 172 -845 466 -1145 253 -257 549
-410 925 -476 117 -21 437 -29 578 -15 394 39 692 156 944 371 79 67 154 159
186 230 17 36 21 65 22 145 0 122 -20 171 -105 256 -71 72 -135 102 -223 107
-97 6 -140 -13 -256 -117 -156 -140 -264 -206 -429 -261 -124 -41 -230 -54
-396 -47 -283 11 -477 95 -659 287 -129 135 -209 312 -224 493 l-6 77 1034 0
c1132 0 1101 -1 1199 58 100 61 140 173 140 389 0 311 -98 601 -289 853 -242
322 -545 522 -909 601 -78 17 -139 22 -312 24 -118 2 -231 1 -250 -1z m465
-664 c162 -51 292 -148 384 -285 58 -88 87 -160 97 -243 6 -56 5 -62 -19 -86
l-26 -26 -751 0 c-541 0 -750 3 -750 11 0 28 34 139 61 197 73 163 196 286
374 374 146 73 218 88 410 84 121 -3 163 -8 220 -26z"/>
<path d="M12185 12649 c-255 -19 -525 -122 -742 -286 -70 -53 -263 -246 -263
-264 0 -5 -4 -9 -10 -9 -5 0 -10 9 -10 20 0 50 -54 291 -76 340 -29 63 -83
123 -135 150 -20 11 -66 24 -103 30 -130 23 -260 -23 -323 -114 -67 -97 -63
-3 -63 -1576 0 -1559 -3 -1473 59 -1563 67 -97 183 -148 338 -148 142 0 217
27 304 108 26 24 58 65 71 91 l23 47 6 845 c6 944 1 883 80 1047 67 140 225
326 369 434 129 96 281 149 429 149 151 -1 248 -38 341 -130 54 -54 123 -171
149 -250 45 -142 44 -124 50 -1130 l6 -955 23 -50 c41 -89 124 -160 223 -189
64 -20 219 -22 281 -5 103 27 189 91 233 170 l30 54 0 1045 c0 973 -1 1052
-19 1150 -51 290 -140 482 -304 652 -243 253 -568 366 -967 337z"/>
<path d="M15675 12649 c-176 -13 -337 -59 -520 -150 -464 -230 -772 -670 -851
-1219 -31 -209 -19 -512 27 -721 100 -457 400 -863 783 -1056 200 -101 398
-146 651 -147 177 -1 261 10 400 55 226 72 430 217 541 384 l39 58 3 -229 c2
-126 -2 -277 -8 -336 -32 -315 -181 -558 -417 -677 -23 -11 -81 -33 -130 -48
-82 -25 -101 -27 -283 -27 -216 -1 -274 7 -438 60 -133 43 -274 117 -411 213
-142 101 -197 125 -282 125 -88 0 -159 -35 -232 -114 -76 -82 -100 -148 -95
-257 4 -66 10 -93 37 -147 98 -200 398 -398 743 -491 434 -117 1027 -106 1408
27 188 66 335 155 469 282 189 181 320 423 381 705 50 230 50 213 50 1890 0
1770 7 1619 -82 1716 -68 75 -132 98 -248 93 -102 -5 -171 -32 -223 -86 -49
-52 -67 -89 -117 -250 l-44 -141 -96 102 c-54 56 -133 127 -176 159 -245 175
-538 251 -879 227z m480 -679 c213 -67 399 -232 502 -445 64 -134 83 -221 90
-410 12 -331 -38 -544 -174 -754 -175 -269 -405 -394 -698 -378 -212 12 -366
78 -505 217 -209 209 -318 564 -282 921 29 285 117 485 291 660 164 164 316
221 571 215 105 -3 151 -9 205 -26z"/>
<path d="M22395 12649 c-259 -20 -533 -125 -740 -284 -68 -52 -207 -189 -253
-249 -12 -16 -24 -27 -25 -25 -2 2 -16 72 -31 154 -30 167 -58 241 -114 298
-48 51 -94 73 -176 87 -67 12 -147 5 -206 -18 -55 -22 -106 -70 -140 -133
l-35 -64 -3 -1449 c-3 -1604 -6 -1508 62 -1598 42 -54 112 -101 186 -122 65
-20 220 -22 282 -5 100 26 191 97 236 184 l27 50 5 845 c6 844 6 845 29 920
73 242 310 518 543 636 134 67 309 93 437 63 159 -36 291 -172 356 -364 49
-148 48 -119 54 -1135 l6 -955 27 -55 c44 -93 117 -154 219 -184 64 -20 219
-22 281 -5 103 27 189 91 233 170 l30 54 0 1045 c0 1032 0 1046 -22 1165 -39
213 -117 409 -216 541 -59 77 -176 189 -257 244 -144 98 -356 172 -527 185
-43 3 -98 7 -123 9 -25 2 -90 0 -145 -5z"/>
<path d="M26462 12649 c-359 -27 -754 -234 -962 -505 -53 -67 -48 -74 -84 120
-40 212 -80 282 -189 335 -103 50 -230 50 -328 1 -46 -24 -105 -89 -132 -148
l-22 -47 0 -1460 0 -1460 22 -47 c53 -116 170 -194 307 -207 204 -18 364 51
438 191 l23 43 5 840 c6 818 7 842 27 916 73 260 329 557 579 670 129 59 295
76 419 44 175 -46 305 -200 367 -435 22 -84 22 -92 28 -1045 4 -791 8 -966 19
-995 45 -111 131 -188 249 -219 62 -17 217 -15 282 5 109 32 201 111 237 203
17 43 18 108 21 941 3 906 -2 1113 -33 1293 -23 128 -60 250 -110 356 -162
342 -503 574 -892 606 -137 11 -170 12 -271 4z"/>
<path d="M19015 12629 c-66 -14 -160 -59 -212 -104 -23 -19 -54 -61 -70 -93
l-28 -57 0 -1445 c0 -1328 1 -1448 17 -1480 71 -150 195 -222 380 -221 156 0
276 53 348 153 63 87 60 5 60 1548 0 1553 4 1464 -63 1552 -86 114 -276 178
-432 147z"/>
</g>
</svg>
